<svg id="visual" viewBox="0 0 960 540" width="960" height="540" xmlns="http://www.w3.org/2000/svg" xmlns:xlink="http://www.w3.org/1999/xlink" version="1.1"><path d="M0 359L9.3 365.7C18.7 372.3 37.3 385.7 56.2 385.5C75 385.3 94 371.7 112.8 368.8C131.7 366 150.3 374 169.2 374.2C188 374.3 207 366.7 225.8 364.3C244.7 362 263.3 365 282.2 372.3C301 379.7 320 391.3 338.8 398.2C357.7 405 376.3 407 395.2 403C414 399 433 389 451.8 383.5C470.7 378 489.3 377 508.2 376.7C527 376.3 546 376.7 564.8 380.5C583.7 384.3 602.3 391.7 621.2 389C640 386.3 659 373.7 677.8 368.2C696.7 362.7 715.3 364.3 734.2 369.7C753 375 772 384 790.8 389.5C809.7 395 828.3 397 847.2 391.5C866 386 885 373 903.8 373C922.7 373 941.3 386 950.7 392.5L960 399L960 541L950.7 541C941.3 541 922.7 541 903.8 541C885 541 866 541 847.2 541C828.3 541 809.7 541 790.8 541C772 541 753 541 734.2 541C715.3 541 696.7 541 677.8 541C659 541 640 541 621.2 541C602.3 541 583.7 541 564.8 541C546 541 527 541 508.2 541C489.3 541 470.7 541 451.8 541C433 541 414 541 395.2 541C376.3 541 357.7 541 338.8 541C320 541 301 541 282.2 541C263.3 541 244.7 541 225.8 541C207 541 188 541 169.2 541C150.3 541 131.7 541 112.8 541C94 541 75 541 56.2 541C37.3 541 18.7 541 9.3 541L0 541Z" fill="#ef6f6c"></path><path d="M0 383L9.3 385.5C18.7 388 37.3 393 56.2 401.7C75 410.3 94 422.7 112.8 426C131.7 429.3 150.3 423.7 169.2 415.8C188 408 207 398 225.8 395C244.7 392 263.3 396 282.2 403C301 410 320 420 338.8 420.7C357.7 421.3 376.3 412.7 395.2 409.7C414 406.7 433 409.3 451.8 404.3C470.7 399.3 489.3 386.7 508.2 382.3C527 378 546 382 564.8 388.2C583.7 394.3 602.3 402.7 621.2 410C640 417.3 659 423.7 677.8 423C696.7 422.3 715.3 414.7 734.2 410.3C753 406 772 405 790.8 403.2C809.7 401.3 828.3 398.7 847.2 400.2C866 401.7 885 407.3 903.8 408C922.7 408.7 941.3 404.3 950.7 402.2L960 400L960 541L950.7 541C941.3 541 922.7 541 903.8 541C885 541 866 541 847.2 541C828.3 541 809.7 541 790.8 541C772 541 753 541 734.2 541C715.3 541 696.7 541 677.8 541C659 541 640 541 621.2 541C602.3 541 583.7 541 564.8 541C546 541 527 541 508.2 541C489.3 541 470.7 541 451.8 541C433 541 414 541 395.2 541C376.3 541 357.7 541 338.8 541C320 541 301 541 282.2 541C263.3 541 244.7 541 225.8 541C207 541 188 541 169.2 541C150.3 541 131.7 541 112.8 541C94 541 75 541 56.2 541C37.3 541 18.7 541 9.3 541L0 541Z" fill="#ec8355"></path><path d="M0 400L9.3 401C18.7 402 37.3 404 56.2 406C75 408 94 410 112.8 409.8C131.7 409.7 150.3 407.3 169.2 413.8C188 420.3 207 435.7 225.8 443.2C244.7 450.7 263.3 450.3 282.2 444.5C301 438.7 320 427.3 338.8 425.5C357.7 423.7 376.3 431.3 395.2 435.2C414 439 433 439 451.8 440.7C470.7 442.3 489.3 445.7 508.2 441.7C527 437.7 546 426.3 564.8 422.7C583.7 419 602.3 423 621.2 423C640 423 659 419 677.8 415.3C696.7 411.7 715.3 408.3 734.2 406C753 403.7 772 402.3 790.8 402.7C809.7 403 828.3 405 847.2 407.5C866 410 885 413 903.8 419C922.7 425 941.3 434 950.7 438.5L960 443L960 541L950.7 541C941.3 541 922.7 541 903.8 541C885 541 866 541 847.2 541C828.3 541 809.7 541 790.8 541C772 541 753 541 734.2 541C715.3 541 696.7 541 677.8 541C659 541 640 541 621.2 541C602.3 541 583.7 541 564.8 541C546 541 527 541 508.2 541C489.3 541 470.7 541 451.8 541C433 541 414 541 395.2 541C376.3 541 357.7 541 338.8 541C320 541 301 541 282.2 541C263.3 541 244.7 541 225.8 541C207 541 188 541 169.2 541C150.3 541 131.7 541 112.8 541C94 541 75 541 56.2 541C37.3 541 18.7 541 9.3 541L0 541Z" fill="#df9946"></path><path d="M0 448L9.3 447.5C18.7 447 37.3 446 56.2 448.8C75 451.7 94 458.3 112.8 458.5C131.7 458.7 150.3 452.3 169.2 452.7C188 453 207 460 225.8 456C244.7 452 263.3 437 282.2 437.8C301 438.7 320 455.3 338.8 463.8C357.7 472.3 376.3 472.7 395.2 472.7C414 472.7 433 472.3 451.8 464.2C470.7 456 489.3 440 508.2 437.3C527 434.7 546 445.3 564.8 449.5C583.7 453.7 602.3 451.3 621.2 448.8C640 446.3 659 443.7 677.8 443.8C696.7 444 715.3 447 734.2 450.3C753 453.7 772 457.3 790.8 458.5C809.7 459.7 828.3 458.3 847.2 456.8C866 455.3 885 453.7 903.8 452.5C922.7 451.3 941.3 450.7 950.7 450.3L960 450L960 541L950.7 541C941.3 541 922.7 541 903.8 541C885 541 866 541 847.2 541C828.3 541 809.7 541 790.8 541C772 541 753 541 734.2 541C715.3 541 696.7 541 677.8 541C659 541 640 541 621.2 541C602.3 541 583.7 541 564.8 541C546 541 527 541 508.2 541C489.3 541 470.7 541 451.8 541C433 541 414 541 395.2 541C376.3 541 357.7 541 338.8 541C320 541 301 541 282.2 541C263.3 541 244.7 541 225.8 541C207 541 188 541 169.2 541C150.3 541 131.7 541 112.8 541C94 541 75 541 56.2 541C37.3 541 18.7 541 9.3 541L0 541Z" fill="#caaf44"></path><path d="M0 455L9.3 458.3C18.7 461.7 37.3 468.3 56.2 470.7C75 473 94 471 112.8 471.3C131.7 471.7 150.3 474.3 169.2 476.7C188 479 207 481 225.8 482.5C244.7 484 263.3 485 282.2 485.3C301 485.7 320 485.3 338.8 485.2C357.7 485 376.3 485 395.2 480C414 475 433 465 451.8 459.7C470.7 454.3 489.3 453.7 508.2 457.7C527 461.7 546 470.3 564.8 469.3C583.7 468.3 602.3 457.7 621.2 455.5C640 453.3 659 459.7 677.8 464.7C696.7 469.7 715.3 473.3 734.2 471.5C753 469.7 772 462.3 790.8 464.3C809.7 466.3 828.3 477.7 847.2 482C866 486.3 885 483.7 903.8 480.2C922.7 476.7 941.3 472.3 950.7 470.2L960 468L960 541L950.7 541C941.3 541 922.7 541 903.8 541C885 541 866 541 847.2 541C828.3 541 809.7 541 790.8 541C772 541 753 541 734.2 541C715.3 541 696.7 541 677.8 541C659 541 640 541 621.2 541C602.3 541 583.7 541 564.8 541C546 541 527 541 508.2 541C489.3 541 470.7 541 451.8 541C433 541 414 541 395.2 541C376.3 541 357.7 541 338.8 541C320 541 301 541 282.2 541C263.3 541 244.7 541 225.8 541C207 541 188 541 169.2 541C150.3 541 131.7 541 112.8 541C94 541 75 541 56.2 541C37.3 541 18.7 541 9.3 541L0 541Z" fill="#aec354"></path><path d="M0 472L9.3 477.7C18.7 483.3 37.3 494.7 56.2 500.7C75 506.7 94 507.3 112.8 503.7C131.7 500 150.3 492 169.2 492.2C188 492.3 207 500.7 225.8 498.7C244.7 496.7 263.3 484.3 282.2 480.7C301 477 320 482 338.8 484C357.7 486 376.3 485 395.2 482.7C414 480.3 433 476.7 451.8 480.8C470.7 485 489.3 497 508.2 502C527 507 546 505 564.8 500.5C583.7 496 602.3 489 621.2 487C640 485 659 488 677.8 490.7C696.7 493.3 715.3 495.7 734.2 497.3C753 499 772 500 790.8 499.8C809.7 499.7 828.3 498.3 847.2 493.5C866 488.7 885 480.3 903.8 477.3C922.7 474.3 941.3 476.7 950.7 477.8L960 479L960 541L950.7 541C941.3 541 922.7 541 903.8 541C885 541 866 541 847.2 541C828.3 541 809.7 541 790.8 541C772 541 753 541 734.2 541C715.3 541 696.7 541 677.8 541C659 541 640 541 621.2 541C602.3 541 583.7 541 564.8 541C546 541 527 541 508.2 541C489.3 541 470.7 541 451.8 541C433 541 414 541 395.2 541C376.3 541 357.7 541 338.8 541C320 541 301 541 282.2 541C263.3 541 244.7 541 225.8 541C207 541 188 541 169.2 541C150.3 541 131.7 541 112.8 541C94 541 75 541 56.2 541C37.3 541 18.7 541 9.3 541L0 541Z" fill="#89d474"></path><path d="M0 517L9.3 516.3C18.7 515.7 37.3 514.3 56.2 515.7C75 517 94 521 112.8 522C131.7 523 150.3 521 169.2 516.5C188 512 207 505 225.8 506.2C244.7 507.3 263.3 516.7 282.2 519.7C301 522.7 320 519.3 338.8 515.7C357.7 512 376.3 508 395.2 508.8C414 509.7 433 515.3 451.8 516.3C470.7 517.3 489.3 513.7 508.2 512.3C527 511 546 512 564.8 512.5C583.7 513 602.3 513 621.2 514.7C640 516.3 659 519.7 677.8 518.7C696.7 517.7 715.3 512.3 734.2 508.2C753 504 772 501 790.8 503C809.7 505 828.3 512 847.2 512.2C866 512.3 885 505.7 903.8 505.7C922.7 505.7 941.3 512.3 950.7 515.7L960 519L960 541L950.7 541C941.3 541 922.7 541 903.8 541C885 541 866 541 847.2 541C828.3 541 809.7 541 790.8 541C772 541 753 541 734.2 541C715.3 541 696.7 541 677.8 541C659 541 640 541 621.2 541C602.3 541 583.7 541 564.8 541C546 541 527 541 508.2 541C489.3 541 470.7 541 451.8 541C433 541 414 541 395.2 541C376.3 541 357.7 541 338.8 541C320 541 301 541 282.2 541C263.3 541 244.7 541 225.8 541C207 541 188 541 169.2 541C150.3 541 131.7 541 112.8 541C94 541 75 541 56.2 541C37.3 541 18.7 541 9.3 541L0 541Z" fill="#56e39f"></path></svg>